<svg version="1.0" xmlns="http://www.w3.org/2000/svg" width="933.333" height="933.333" viewBox="0 0 700 700"><path d="M16 2.1C10 4.8 5.3 9.5 2.4 15.5l-2.4 5V350c0 329.2 0 329.5 2.1 334 2.7 6 7.4 10.7 13.4 13.6l5 2.4h659l5-2.4c6-2.9 10.7-7.6 13.4-13.6 2.1-4.5 2.1-4.8 2.1-334V20.5l-2.4-5c-2.9-6-7.6-10.7-13.6-13.4C679.5 0 679.2 0 350 0S20.5 0 16 2.1zm288.9 268.1c39.9 78 72.8 141.4 73.2 141 .4-.4 22.3-64.2 48.7-141.7l47.9-141 91.2-.3 91.1-.2v90h-41.4c-22.8 0-41.7.3-41.9.7-.2.5 1.2 57 3.2 125.8l3.6 125 13.5.6c7.4.4 27.3 1 44.2 1.4l30.8.7.4 3.2c1.3 7.9 4.6 62 3.9 62.6-.7.6-226.3 19.1-231.5 19-1.7 0-1.8-2.8-1.8-45.5V466l13.2.5c33.4 1.4 70.2 2.4 70.6 2 .5-.5-30.5-211.3-31.7-216-.8-2.8-.9-2.9-1.7-.9-.5 1.2-24.7 60.3-53.9 131.3l-53 129.1-21.8-.3-21.9-.2-72.1-132.7c-39.6-73.1-72.2-132.6-72.4-132.4-.2.1-3.9 49.1-8.3 108.7-4.3 59.6-8.2 110.9-8.5 113.9l-.6 5.6 40.8 2.7c22.4 1.5 40.8 2.9 41 3.1.9.9 5.4 56.9 4.6 57.6-1 .9-224.1 19.5-224.9 18.8-.4-.4 6.5-89.4 7-90.5.1-.2 38.3 2.5 66.6 4.6 6.9.5 12.7.7 12.9.5.5-.5-5-232.7-5.5-233.3-.2-.2-18.4 1.5-40.4 3.9s-40.3 4.1-40.6 3.8c-.5-.6 8-107.4 9.2-114.6l.5-3.2 91.6.2 91.7.3 72.5 141.7z"/></svg>