<svg width="89" height="84" viewBox="0 0 89 84" fill="none" xmlns="http://www.w3.org/2000/svg">
<g filter="url(#filter0_d_1_6644)">
<path fill-rule="evenodd" clip-rule="evenodd" d="M37.6717 16.7326C36.3023 16.7326 35.2892 17.9313 35.3344 19.2311C35.378 20.4798 35.3214 22.0973 34.9142 23.4162C34.5057 24.7391 33.8151 25.5771 32.6869 25.6845V26.8994C33.8151 27.0068 34.5057 27.8448 34.9142 29.1677C35.3214 30.4866 35.378 32.1041 35.3344 33.3528C35.2892 34.6526 36.3023 35.8513 37.6717 35.8513H51.7038C53.0732 35.8513 54.0864 34.6526 54.0411 33.3528C53.9976 32.1041 54.0541 30.4866 54.4613 29.1677C54.8698 27.8448 55.5587 27.0068 56.6869 26.8994V25.6845C55.5587 25.5771 54.8698 24.7391 54.4613 23.4162C54.0541 22.0973 53.9976 20.4798 54.0411 19.2311C54.0864 17.9313 53.0732 16.7326 51.7038 16.7326H37.6717ZM49.6057 29.0897C49.6057 31.202 48.0304 32.4826 45.4161 32.4826L42.4857 32.4826C41.3811 32.4826 40.4857 31.5872 40.4857 30.4826L40.4857 22.4826C40.4857 21.3781 41.3811 20.4826 42.4857 20.4826L45.3906 20.4826C47.5705 20.4826 49.0011 21.6635 49.0011 23.4764C49.0011 24.7487 48.0389 25.888 46.8127 26.0876V26.1541C48.4817 26.3371 49.6057 27.493 49.6057 29.0897ZM44.9308 22.0044H42.3932L42.3932 25.5886L44.5305 25.5886C46.1825 25.5886 47.0937 24.9234 47.0937 23.7342C47.0937 22.6198 46.3103 22.0044 44.9308 22.0044ZM42.3932 27.0107V30.9608L45.0244 30.9608C46.7445 30.9608 47.6557 30.2706 47.6557 28.9733C47.6557 27.676 46.719 27.0107 44.9137 27.0107H42.3932Z" fill="url(#paint0_linear_1_6644)"/>
</g>
<path d="M36.3338 19.1963C36.3061 18.4002 36.9282 17.7326 37.6717 17.7326L51.7038 17.7326C52.4473 17.7326 53.0694 18.4002 53.0417 19.1963C52.997 20.4785 53.0485 22.2303 53.5058 23.7112C53.8356 24.7793 54.3977 25.7634 55.3295 26.2919C54.3977 26.8205 53.8356 27.8046 53.5058 28.8727C53.0485 30.3536 52.997 32.1054 53.0417 33.3876C53.0694 34.1837 52.4473 34.8513 51.7038 34.8513L37.6717 34.8513C36.9282 34.8513 36.3061 34.1837 36.3338 33.3876C36.3785 32.1054 36.327 30.3536 35.8697 28.8727C35.5397 27.8039 34.9765 26.8203 34.0446 26.2919C34.9765 25.7636 35.5397 24.7799 35.8697 23.7112C36.327 22.2303 36.3785 20.4785 36.3338 19.1963Z" stroke="white" stroke-width="2"/>
<defs>
<filter id="filter0_d_1_6644" x="0.68689" y="0.732624" width="88" height="83.1186" filterUnits="userSpaceOnUse" color-interpolation-filters="sRGB">
<feFlood flood-opacity="0" result="BackgroundImageFix"/>
<feColorMatrix in="SourceAlpha" type="matrix" values="0 0 0 0 0 0 0 0 0 0 0 0 0 0 0 0 0 0 127 0" result="hardAlpha"/>
<feOffset dy="16"/>
<feGaussianBlur stdDeviation="16"/>
<feColorMatrix type="matrix" values="0 0 0 0 0 0 0 0 0 0 0 0 0 0 0 0 0 0 0.2 0"/>
<feBlend mode="normal" in2="BackgroundImageFix" result="effect1_dropShadow_1_6644"/>
<feBlend mode="normal" in="SourceGraphic" in2="effect1_dropShadow_1_6644" result="shape"/>
</filter>
<linearGradient id="paint0_linear_1_6644" x1="34.9569" y1="17.991" x2="41.3409" y2="35.8156" gradientUnits="userSpaceOnUse">
<stop stop-color="white"/>
<stop offset="1" stop-color="#F1E5FC"/>
</linearGradient>
</defs>
</svg>
