<svg width="24" height="19" viewBox="0 0 24 19" fill="none" xmlns="http://www.w3.org/2000/svg">
<g clip-path="url(#clip0_1_453)">
<path d="M20.6527 10.4365C19.8159 10.441 19.0886 10.6444 18.4797 10.9451C18.2562 10.4984 18.0328 10.1004 17.9934 9.80857C17.9495 9.46805 17.897 9.26021 17.9495 8.85336C18.0021 8.44651 18.2387 7.86719 18.2343 7.82296C18.2299 7.77874 18.1817 7.57089 17.6998 7.56647C17.2179 7.56205 16.8017 7.65934 16.7535 7.78759C16.7053 7.91583 16.6133 8.2077 16.552 8.50842C16.4687 8.95065 15.5881 10.5294 15.0843 11.3564C14.9222 11.0335 14.782 10.7505 14.7513 10.525C14.7075 10.1845 14.6549 9.97662 14.7075 9.56977C14.7601 9.16292 14.9966 8.5836 14.9923 8.53937C14.9879 8.49515 14.9397 8.2873 14.4578 8.28288C13.9758 8.27846 13.5596 8.37575 13.5114 8.504C13.4632 8.63224 13.4107 8.93296 13.3099 9.22483C13.2091 9.5167 12.0394 12.1524 11.7327 12.8334C11.575 13.1828 11.4391 13.4614 11.3428 13.6515C11.3428 13.6515 11.3384 13.6648 11.3252 13.6869C11.242 13.8505 11.1938 13.939 11.1938 13.939C11.1938 13.939 11.1938 13.939 11.1938 13.9434C11.1281 14.0628 11.058 14.1734 11.0229 14.1734C10.9966 14.1734 10.9484 13.855 11.0317 13.4216C11.2069 12.5062 11.6231 11.0822 11.6188 11.0335C11.6188 11.007 11.6976 10.7594 11.3471 10.6311C11.0054 10.5029 10.8827 10.7151 10.8521 10.7151C10.8214 10.7151 10.7995 10.7903 10.7995 10.7903C10.7995 10.7903 11.1807 9.18945 10.0722 9.18945C9.37999 9.18945 8.4249 9.9545 7.95174 10.6444C7.65382 10.808 7.01855 11.1574 6.33947 11.5333C6.08098 11.6792 5.81373 11.8251 5.564 11.9622C5.54648 11.9445 5.52895 11.9224 5.51143 11.9047C4.17079 10.4586 1.69106 9.4371 1.7962 7.49572C1.83563 6.78815 2.0766 4.93079 6.55853 2.67543C10.2475 0.840179 13.1828 1.34874 13.6911 2.47642C14.4183 4.08614 12.1182 7.0756 8.30661 7.50898C6.85206 7.67261 6.08974 7.10655 5.89697 6.89428C5.69544 6.67317 5.66477 6.6599 5.59029 6.70413C5.46762 6.77046 5.54648 6.96946 5.59029 7.08444C5.7042 7.38516 6.17298 7.91583 6.96597 8.17675C7.66696 8.40671 9.37123 8.53495 11.4348 7.7301C13.7436 6.82795 15.5487 4.32052 15.0185 2.21993C14.4884 0.0883913 10.9835 -0.614752 7.66696 0.574842C5.69544 1.28241 3.55743 2.39682 2.01964 3.84733C0.192699 5.57202 -0.0964575 7.07118 0.0218338 7.69914C0.446806 9.92797 3.49171 11.3785 4.70968 12.4531C4.64834 12.4885 4.59138 12.5194 4.54319 12.546C3.93421 12.8511 1.6122 14.0761 1.03388 15.3718C0.376708 16.84 1.13903 17.8925 1.64286 18.034C3.20694 18.4718 4.81482 17.6847 5.67791 16.3845C6.541 15.0844 6.43585 13.395 6.03717 12.6211C6.03279 12.6123 6.02841 12.6035 6.01964 12.5946C6.17736 12.5017 6.33947 12.4044 6.49719 12.3116C6.80825 12.1258 7.11493 11.9534 7.3778 11.8119C7.22884 12.2231 7.11931 12.714 7.06674 13.4216C7.00102 14.253 7.33837 15.332 7.78087 15.7565C7.97802 15.9423 8.21022 15.9467 8.35918 15.9467C8.87616 15.9467 9.10836 15.5133 9.36685 15.0003C9.68229 14.3724 9.96707 13.6427 9.96707 13.6427C9.96707 13.6427 9.6122 15.615 10.5761 15.615C10.9265 15.615 11.2814 15.1551 11.4391 14.9207C11.4391 14.9251 11.4391 14.9251 11.4391 14.9251C11.4391 14.9251 11.4479 14.9119 11.4654 14.8809C11.5005 14.8234 11.5224 14.7881 11.5224 14.7881C11.5224 14.7881 11.5224 14.7836 11.5224 14.7792C11.6626 14.5316 11.978 13.9699 12.4468 13.0368C13.0514 11.834 13.6341 10.3304 13.6341 10.3304C13.6341 10.3304 13.6867 10.6974 13.8663 11.3077C13.9715 11.6659 14.1905 12.0595 14.3658 12.4398C14.2256 12.6388 14.1379 12.7494 14.1379 12.7494C14.1379 12.7494 14.1379 12.7494 14.1423 12.7538C14.0284 12.9042 13.9057 13.0678 13.7699 13.227C13.2924 13.8019 12.7228 14.4608 12.644 14.651C12.552 14.8765 12.5739 15.0401 12.7491 15.1728C12.8762 15.2701 13.104 15.2834 13.3362 15.2701C13.7655 15.2391 14.0678 15.133 14.2168 15.0667C14.449 14.9826 14.7206 14.8544 14.9747 14.6642C15.4435 14.3149 15.7283 13.8152 15.702 13.1562C15.6889 12.7936 15.5706 12.431 15.426 12.0905C15.4698 12.0286 15.5092 11.9666 15.5531 11.9047C16.2935 10.8124 16.8674 9.61399 16.8674 9.61399C16.8674 9.61399 16.92 9.98104 17.0996 10.5913C17.1872 10.9009 17.3669 11.237 17.5246 11.5642C16.828 12.1347 16.3986 12.798 16.2453 13.2314C15.9693 14.0363 16.1839 14.3989 16.5914 14.4829C16.7754 14.5227 17.0383 14.4343 17.231 14.3503C17.4764 14.2707 17.7655 14.1336 18.0415 13.9301C18.5103 13.5808 18.9616 13.0943 18.9353 12.4354C18.9222 12.1347 18.8433 11.8384 18.7338 11.5509C19.3252 11.3033 20.0876 11.1662 21.0602 11.2812C23.1456 11.5288 23.5574 12.8423 23.4786 13.395C23.3997 13.9478 22.9616 14.2485 22.817 14.3414C22.6724 14.4343 22.6242 14.4652 22.6374 14.5316C22.6549 14.6289 22.725 14.6244 22.8477 14.6067C23.0185 14.5758 23.943 14.1601 23.9824 13.143C24.0481 11.8428 22.8214 10.4233 20.6527 10.4365ZM4.5651 15.9113C3.87287 16.672 2.90902 16.9594 2.49281 16.7162C2.04593 16.4553 2.22118 15.332 3.07112 14.5271C3.5881 14.0363 4.25404 13.5808 4.69653 13.3022C4.7973 13.2403 4.94626 13.1518 5.12589 13.0413C5.15655 13.0236 5.17408 13.0147 5.17408 13.0147C5.20913 12.9926 5.24418 12.9705 5.27923 12.9484C5.59029 14.0982 5.29237 15.1109 4.5651 15.9113ZM9.60343 12.4531C9.36247 13.0457 8.85864 14.5625 8.55195 14.4785C8.28908 14.4077 8.12698 13.2579 8.49938 12.1214C8.68777 11.5509 9.08646 10.8699 9.31866 10.6046C9.69544 10.18 10.1116 10.0385 10.2124 10.211C10.3395 10.4365 9.75239 12.0816 9.60343 12.4531ZM13.7612 14.4608C13.6604 14.5139 13.564 14.5493 13.5202 14.5227C13.4895 14.505 13.564 14.4343 13.564 14.4343C13.564 14.4343 14.0854 13.8682 14.2913 13.6117C14.4096 13.4614 14.5498 13.2845 14.6987 13.0855C14.6987 13.1032 14.6987 13.1253 14.6987 13.143C14.6987 13.8196 14.0503 14.2751 13.7612 14.4608ZM16.9682 13.7223C16.8937 13.6692 16.9068 13.4923 17.1566 12.9395C17.2529 12.7229 17.4808 12.3602 17.8707 12.0109C17.9145 12.1524 17.9452 12.2895 17.9408 12.4177C17.9364 13.2712 17.3318 13.5896 16.9682 13.7223Z" fill="#CD6799"/>
</g>
<defs>
<clipPath id="clip0_1_453">
<rect width="24" height="18.1579" fill="white"/>
</clipPath>
</defs>
</svg>
