<svg width="25" height="24" viewBox="0 0 25 24" fill="none" xmlns="http://www.w3.org/2000/svg">
<path d="M12.8455 0C6.7528 4.347e-07 7.13327 2.64216 7.13327 2.64216L7.14006 5.37941H12.9542V6.20126H4.83072C4.83072 6.20126 0.932007 5.75911 0.932007 11.9067C0.932006 18.0543 4.33489 17.8363 4.33489 17.8363H6.36575V14.9836C6.36575 14.9836 6.25628 11.5807 9.7143 11.5807C13.1723 11.5807 15.4809 11.5807 15.4809 11.5807C15.4809 11.5807 18.7207 11.633 18.7207 8.44947C18.7207 5.26591 18.7207 3.18553 18.7207 3.18553C18.7207 3.18553 19.2126 0 12.8455 0ZM9.63958 1.84068C10.218 1.84068 10.6856 2.30822 10.6856 2.88668C10.6856 3.46514 10.218 3.93267 9.63958 3.93267C9.06112 3.93267 8.59359 3.46514 8.59359 2.88668C8.59359 2.30822 9.06112 1.84068 9.63958 1.84068Z" fill="url(#paint0_linear_1_923)"/>
<path d="M13.0186 23.8751C19.1113 23.8751 18.7308 21.2329 18.7308 21.2329L18.724 18.4957H12.9099V17.6738H21.0333C21.0333 17.6738 24.9321 18.116 24.9321 11.9684C24.9321 5.82079 21.5292 6.0388 21.5292 6.0388H19.4983V8.89151C19.4983 8.89151 19.6078 12.2944 16.1498 12.2944C12.6918 12.2944 10.3832 12.2944 10.3832 12.2944C10.3832 12.2944 7.14333 12.242 7.14333 15.4256C7.14333 18.6092 7.14333 20.6895 7.14333 20.6895C7.14333 20.6895 6.65143 23.8751 13.0186 23.8751ZM16.2245 22.0344C15.646 22.0344 15.1785 21.5669 15.1785 20.9884C15.1785 20.4099 15.646 19.9424 16.2245 19.9424C16.8029 19.9424 17.2705 20.4099 17.2705 20.9884C17.2705 21.5669 16.8029 22.0344 16.2245 22.0344Z" fill="url(#paint1_linear_1_923)"/>
<defs>
<linearGradient id="paint0_linear_1_923" x1="3.23845" y1="2.08689" x2="15.1058" y2="13.9939" gradientUnits="userSpaceOnUse">
<stop stop-color="#387EB8"/>
<stop offset="1" stop-color="#366994"/>
</linearGradient>
<linearGradient id="paint1_linear_1_923" x1="10.5387" y1="9.66162" x2="23.2843" y2="21.8725" gradientUnits="userSpaceOnUse">
<stop stop-color="#FFE052"/>
<stop offset="1" stop-color="#FFC331"/>
</linearGradient>
</defs>
</svg>
