<svg width="24" height="22" viewBox="0 0 24 22" fill="none" xmlns="http://www.w3.org/2000/svg">
<g clip-path="url(#clip0_125_222)">
<path d="M12 12.6499C13.1814 12.6499 14.1391 11.7046 14.1391 10.5385C14.1391 9.37233 13.1814 8.427 12 8.427C10.8186 8.427 9.86087 9.37233 9.86087 10.5385C9.86087 11.7046 10.8186 12.6499 12 12.6499Z" fill="#61DAFB"/>
<path fill-rule="evenodd" clip-rule="evenodd" d="M1.7588 9.22106C1.23978 9.68352 1.02174 10.1296 1.02174 10.5386C1.02174 10.9475 1.23978 11.3936 1.7588 11.856C2.27777 12.3185 3.0568 12.7575 4.062 13.1364C6.06896 13.8927 8.87533 14.3709 12 14.3709C15.1247 14.3709 17.931 13.8927 19.938 13.1364C20.9432 12.7575 21.7222 12.3185 22.2412 11.856C22.7602 11.3936 22.9783 10.9475 22.9783 10.5386C22.9783 10.1296 22.7602 9.68352 22.2412 9.22106C21.7222 8.75864 20.9432 8.31958 19.938 7.94074C17.931 7.18436 15.1247 6.70618 12 6.70618C8.87533 6.70618 6.06896 7.18436 4.062 7.94074C3.0568 8.31958 2.27777 8.75864 1.7588 9.22106ZM3.7053 7.01861C5.85264 6.20932 8.78541 5.71912 12 5.71912C15.2146 5.71912 18.1474 6.20932 20.2947 7.01861C21.3667 7.42261 22.2686 7.9157 22.9113 8.48837C23.5539 9.06099 23.9783 9.75297 23.9783 10.5386C23.9783 11.3241 23.5539 12.0161 22.9113 12.5887C22.2686 13.1614 21.3667 13.6545 20.2947 14.0585C18.1474 14.8678 15.2146 15.358 12 15.358C8.78541 15.358 5.85264 14.8678 3.7053 14.0585C2.63334 13.6545 1.73142 13.1614 1.08872 12.5887C0.446078 12.0161 0.0217438 11.3241 0.0217438 10.5386C0.0217438 9.75297 0.446078 9.06099 1.08872 8.48837C1.73142 7.9157 2.63334 7.42261 3.7053 7.01861Z" fill="#61DAFB"/>
<path fill-rule="evenodd" clip-rule="evenodd" d="M8.03534 1.12537C7.37007 0.912935 6.8697 0.949574 6.51087 1.15406C6.15204 1.35856 5.86971 1.76796 5.72346 2.44286C5.57723 3.1177 5.58152 4.00316 5.75174 5.05184C6.09159 7.14563 7.07523 9.78366 8.63756 12.4547C10.1999 15.1257 12.0226 17.2856 13.6897 18.623C14.5247 19.2928 15.2995 19.7392 15.9647 19.9516C16.6299 20.1641 17.1303 20.1274 17.4891 19.9229C17.848 19.7185 18.1303 19.309 18.2765 18.6341C18.4228 17.9593 18.4185 17.0739 18.2483 16.0252C17.9084 13.9314 16.9248 11.2934 15.3624 8.62232C13.8001 5.95129 11.9774 3.79144 10.3103 2.45403C9.47527 1.78418 8.70054 1.33778 8.03534 1.12537ZM10.941 1.68805C12.7247 3.119 14.6212 5.38089 16.2285 8.12879C17.8358 10.8767 18.872 13.6288 19.2357 15.869C19.4172 16.9873 19.4355 18.0049 19.2544 18.8406C19.0733 19.6763 18.6784 20.385 17.9891 20.7778C17.2999 21.1706 16.4806 21.1538 15.6569 20.8908C14.8331 20.6277 13.9495 20.1033 13.059 19.389C11.2753 17.958 9.37884 15.6961 7.77154 12.9482C6.16424 10.2003 5.12795 7.44823 4.76433 5.20799C4.58281 4.08967 4.56448 3.07214 4.74558 2.23641C4.92666 1.40075 5.32162 0.692036 6.01087 0.299244C6.70013 -0.0935479 7.51941 -0.0768051 8.34314 0.186229C9.16694 0.449286 10.0505 0.973719 10.941 1.68805Z" fill="#61DAFB"/>
<path fill-rule="evenodd" clip-rule="evenodd" d="M18.2765 2.44289C18.1303 1.76799 17.848 1.35858 17.4891 1.15409C17.1303 0.949596 16.6299 0.912957 15.9647 1.12539C15.2995 1.3378 14.5247 1.78421 13.6897 2.45405C12.0226 3.79146 10.1999 5.95131 8.63756 8.62234C7.07523 11.2934 6.09159 13.9314 5.75174 16.0252C5.58152 17.0739 5.57722 17.9593 5.72346 18.6342C5.86971 19.3091 6.15204 19.7185 6.51087 19.923C6.8697 20.1275 7.37007 20.1641 8.03534 19.9517C8.70053 19.7393 9.47527 19.2929 10.3103 18.623C11.9774 17.2856 13.8001 15.1257 15.3624 12.4547C16.9248 9.78368 17.9084 7.14565 18.2483 5.05187C18.4185 4.00318 18.4228 3.11772 18.2765 2.44289ZM19.2357 5.20802C18.872 7.44826 17.8358 10.2003 16.2285 12.9482C14.6212 15.6962 12.7247 17.958 10.941 19.389C10.0505 20.1033 9.16693 20.6278 8.34314 20.8908C7.51941 21.1538 6.70012 21.1706 6.01087 20.7778C5.32161 20.385 4.92666 19.6763 4.74558 18.8406C4.56448 18.0049 4.58281 16.9874 4.76433 15.869C5.12795 13.6288 6.16424 10.8767 7.77154 8.12881C9.37883 5.38091 11.2753 3.11902 13.059 1.68807C13.9495 0.973742 14.8331 0.449309 15.6569 0.186252C16.4806 -0.0767827 17.2999 -0.0935256 17.9891 0.299267C18.6784 0.692059 19.0733 1.40078 19.2544 2.23643C19.4355 3.07216 19.4172 4.08969 19.2357 5.20802Z" fill="#61DAFB"/>
</g>
<defs>
<clipPath id="clip0_125_222">
<rect width="24" height="21.0769" fill="white"/>
</clipPath>
</defs>
</svg>
