<svg width="24" height="24" viewBox="0 0 24 24" fill="none" xmlns="http://www.w3.org/2000/svg">
<g clip-path="url(#clip0_105_9)">
<path d="M24 12C24 5.388 18.612 0 12 0C5.376 0 0 5.388 0 12C0 18.624 5.376 24 12 24C18.612 24 24 18.624 24 12ZM9.336 18.444L5.244 7.464C5.904 7.44 6.648 7.368 6.648 7.368C7.248 7.296 7.176 6.012 6.576 6.036C6.576 6.036 4.836 6.168 3.732 6.168C3.516 6.168 3.288 6.168 3.036 6.156C4.00828 4.66715 5.33807 3.4456 6.90393 2.60293C8.46979 1.76026 10.2218 1.32331 12 1.332C14.796 1.332 17.34 2.376 19.26 4.14C18.444 4.008 17.28 4.608 17.28 6.036C17.28 6.924 17.82 7.668 18.36 8.556C18.78 9.288 19.02 10.188 19.02 11.508C19.02 13.296 17.34 17.508 17.34 17.508L13.704 7.464C14.352 7.44 14.688 7.26 14.688 7.26C15.288 7.2 15.216 5.76 14.616 5.796C14.616 5.796 12.888 5.94 11.76 5.94C10.716 5.94 8.964 5.796 8.964 5.796C8.364 5.76 8.292 7.236 8.892 7.26L9.996 7.356L11.508 11.448L9.336 18.444ZM20.892 12C21.18 11.232 21.78 9.756 21.408 6.9C22.248 8.448 22.668 10.152 22.668 12C22.668 15.948 20.592 19.488 17.388 21.336C18.552 18.228 19.716 15.096 20.892 12ZM7.32 21.708C3.744 19.98 1.332 16.236 1.332 12C1.332 10.44 1.608 9.024 2.196 7.692C3.9 12.36 5.604 17.04 7.32 21.708ZM12.156 13.752L15.252 22.128C14.22 22.476 13.14 22.668 12 22.668C11.052 22.668 10.116 22.536 9.252 22.272C10.224 19.416 11.196 16.584 12.156 13.752V13.752Z" fill="white"/>
</g>
<defs>
<clipPath id="clip0_105_9">
<rect width="24" height="24" fill="white"/>
</clipPath>
</defs>
</svg>
